<svg width="50" height="50" viewBox="0 0 50 50" fill="none" xmlns="http://www.w3.org/2000/svg">
<g clip-path="url(#clip0_1_876)">
<path d="M29.7352 40.5845V31.397C29.7352 30.9909 29.5739 30.6014 29.2867 30.3143C28.9996 30.0271 28.6101 29.8658 28.204 29.8658H22.079C21.6729 29.8658 21.2834 30.0271 20.9962 30.3143C20.7091 30.6014 20.5477 30.9909 20.5477 31.397V40.5845C20.5477 40.9906 20.3864 41.3801 20.0992 41.6673C19.8121 41.9544 19.4226 42.1158 19.0165 42.1158H9.82898C9.42287 42.1158 9.03339 41.9544 8.74622 41.6673C8.45906 41.3801 8.29773 40.9906 8.29773 40.5845V22.8794C8.30116 22.6675 8.34695 22.4584 8.43242 22.2645C8.51789 22.0705 8.6413 21.8957 8.79539 21.7501L24.1079 7.83491C24.3902 7.57666 24.7589 7.43344 25.1415 7.43344C25.5241 7.43344 25.8928 7.57666 26.1751 7.83491L41.4876 21.7501C41.6417 21.8957 41.7651 22.0705 41.8505 22.2645C41.936 22.4584 41.9818 22.6675 41.9852 22.8794V40.5845C41.9852 40.9906 41.8239 41.3801 41.5367 41.6673C41.2496 41.9544 40.8601 42.1158 40.454 42.1158H31.2665C30.8604 42.1158 30.4709 41.9544 30.1837 41.6673C29.8966 41.3801 29.7352 40.9906 29.7352 40.5845Z" stroke="white" stroke-width="1.53125" stroke-linecap="round" stroke-linejoin="round"/>
</g>
<defs>
<clipPath id="clip0_1_876">
<rect width="49" height="49" fill="white" transform="translate(0.641479 0.772034)"/>
</clipPath>
</defs>
</svg>
